<svg version="1.1" xmlns="http://www.w3.org/2000/svg" xmlns:xlink="http://www.w3.org/1999/xlink" x="0px" y="0px" viewBox="0 0 256 256" enable-background="new 0 0 256 256" xml:space="preserve">
<metadata> Svg Vector Icons : http://www.onlinewebfonts.com/icon </metadata>
<g><g><path fill="#000000" d="M202.4,110.5c-2.6-13.1-8.5-18-12.3-19.8c-0.7-1.1-1.3-2.7-1.2-5.1c0-0.7,0-1.3,0-1.6c0-0.9,0.1-1.8,0.1-2.7c0-39.3-27.3-71.3-60.8-71.3c-33.5,0-60.9,32-60.9,71.3c0,0.9,0,1.7,0.1,2.6c-0.1,0.4-0.1,0.9-0.1,1.8c0.1,3.3-1,5.2-2,6.1c-0.4,0.3-0.8,0.6-1.2,0.9c-0.1,0-0.1,0-0.1,0l0,0c-3.4,2.7-7.2,7.9-9.1,17.8c-3,15.5,6.1,31.3,8.1,34c5.8,7.7,11.5,10.7,17.8,11.1c10.8,0.6,15.9-0.8,21.4-9.9c7.9,4.4,16.7,6.8,26,6.8c9.6,0,18.6-2.6,26.7-7.2c5.6,9.4,10.7,10.9,21.6,10.3c6.3-0.4,12-3.4,17.8-11.1C196.2,141.8,205.4,126,202.4,110.5z M128.1,148.5c-28,0-51.3-24.1-56-55.7c5.3,0.9,11.8,1.3,17.6,1.3c23.6,0,47.4-11.4,58.2-37c8.7,20.3,20.6,30.3,36.5,33.2C180.7,123.1,156.9,148.5,128.1,148.5z M127.1,184.9h-22.7c0,0-12.3-18.4-11.6-20.9c0.7-2.6,8.3-7.4,10.9-7.2c2.6,0.2,9.4,16.9,23.4,16.9L127.1,184.9z M129.3,184.9h22.7c0,0,12.3-18.4,11.6-20.9c-0.7-2.6-8.3-7.4-10.9-7.2c-2.6,0.2-9.4,16.9-23.4,16.9L129.3,184.9z M160.8,233.7c0,6.7-5.5,12.2-12.2,12.2h-40.5c-6.7,0-12.2-5.5-12.2-12.2l0,0c0-6.7,5.5-12.2,12.2-12.2h40.5C155.4,221.5,160.8,227,160.8,233.7L160.8,233.7z M70.3,164.2c0,0-21.8-3.5-39.5,35.1c0,0-6.3,8.4,13.2,17.2c19.5,8.8,32.3,23.5,33.7,29.1c1.4,5.6,7.8-41.5,7.2-50.2C84.4,186.7,80.8,170.7,70.3,164.2z M185.7,164.2c0,0,21.8-3.5,39.5,35.1c0,0,6.3,8.4-13.2,17.2c-19.5,8.8-32.3,23.5-33.7,29.1c-1.4,5.6-7.8-41.5-7.2-50.2C171.6,186.7,175.2,170.7,185.7,164.2z"/></g></g>
</svg>